<?xml version="1.0" encoding="UTF-8"?>
<!DOCTYPE svg PUBLIC "-//W3C//DTD SVG 1.1//EN" "http://www.w3.org/Graphics/SVG/1.1/DTD/svg11.dtd">
<svg version="1.1" xmlns="http://www.w3.org/2000/svg" xmlns:xlink="http://www.w3.org/1999/xlink" x="0" y="0" width="292.08" height="41.088" viewBox="0, 0, 292.08, 41.088">
  <g id="Layer_1" transform="translate(-238.8, -374.052)">
    <path d="M264.624,413.988 C264.864,412.452 265.488,410.34 266.688,406.932 L271.344,393.78 C271.968,392.052 272.448,390.324 273.504,386.58 C273.456,387.3 273.456,387.3 273.312,389.844 C273.216,391.332 273.072,394.932 273.072,396.084 L273.072,406.548 C273.072,409.956 272.976,411.78 272.688,413.988 L282.144,413.988 C281.856,412.068 281.76,410.196 281.76,406.548 L281.76,381.54 C281.76,378.324 281.856,376.356 282.144,374.052 L269.424,374.052 C269.136,376.068 268.752,377.604 267.648,380.82 L260.496,401.508 L253.296,380.82 C252.192,377.652 251.808,376.116 251.472,374.052 L238.8,374.052 C239.04,376.116 239.184,378.66 239.184,381.54 L239.184,406.548 C239.184,409.812 239.088,411.828 238.8,413.988 L248.256,413.988 C247.968,411.972 247.872,409.86 247.872,406.548 L247.872,396.132 C247.872,393.588 247.68,389.652 247.392,386.628 C247.632,387.3 247.632,387.3 248.16,389.028 C248.304,389.412 249.744,393.876 249.792,394.116 L254.208,406.884 C255.504,410.532 256.032,412.308 256.272,413.988 z" fill="#C75DFF"/>
    <path d="M302.256,415.092 C311.808,415.092 318.144,408.756 318.144,399.204 C318.144,389.7 312,383.604 302.304,383.604 C292.608,383.604 286.464,389.7 286.464,399.3 C286.464,408.948 292.608,415.092 302.256,415.092 z M302.352,390.804 C306.432,390.804 308.88,393.972 308.88,399.348 C308.88,404.676 306.48,407.796 302.304,407.796 C298.128,407.796 295.632,404.58 295.632,399.252 C295.632,393.972 298.128,390.804 302.352,390.804 z" fill="#C75DFF"/>
    <path d="M342.288,384.708 C342.576,387.204 342.672,389.22 342.672,391.908 L342.672,401.748 C340.8,404.82 338.112,406.692 335.472,406.692 C334.08,406.692 333.024,406.212 332.352,405.348 C331.776,404.58 331.584,403.716 331.584,401.748 L331.584,391.908 C331.584,389.028 331.68,387.012 331.968,384.708 L321.984,384.708 C322.224,386.724 322.368,389.124 322.368,391.908 L322.368,403.956 C322.368,407.748 323.184,410.1 325.104,412.02 C326.928,413.796 329.52,414.708 332.736,414.708 C336.816,414.708 339.552,413.556 342.72,410.58 C342.672,410.916 342.672,411.636 342.672,411.876 L342.672,413.94 L352.224,413.94 C351.936,412.02 351.84,410.052 351.84,406.74 L351.84,391.908 C351.84,388.98 351.936,386.964 352.224,384.708 z" fill="#C75DFF"/>
    <path d="M357.264,374.052 C357.552,375.876 357.648,377.892 357.648,381.3 L357.648,406.74 C357.648,410.196 357.552,411.828 357.264,413.988 L367.296,413.988 C367.008,411.444 366.912,409.62 366.912,406.74 L366.912,381.3 C366.912,378.036 367.008,376.068 367.296,374.052 z" fill="#C75DFF"/>
    <path d="M372.48,374.052 L372.48,381.252 L382.224,381.252 L382.224,374.052 z M372.336,384.708 C372.624,386.868 372.72,388.836 372.72,391.956 L372.72,406.74 C372.72,409.812 372.624,411.636 372.336,413.988 L382.368,413.988 C382.128,411.924 381.984,409.332 381.984,406.74 L381.984,391.956 C381.984,388.596 382.08,386.676 382.368,384.708 z" fill="#C75DFF"/>
    <path d="M397.392,413.988 C397.104,411.492 397.008,409.476 397.008,406.74 L397.008,397.044 C399.072,393.684 401.472,392.004 404.16,392.004 C405.6,392.004 406.704,392.484 407.328,393.348 C407.904,394.164 408.096,394.98 408.096,396.9 L408.096,406.74 C408.096,409.668 408,411.684 407.712,413.988 L417.696,413.988 C417.456,411.972 417.312,409.572 417.312,406.788 L417.312,394.74 C417.312,390.948 416.496,388.596 414.576,386.676 C412.8,384.9 410.16,383.988 406.848,383.988 C402.912,383.988 399.984,385.188 396.96,388.068 C396.96,387.732 397.008,387.012 397.008,386.724 L397.008,384.708 L387.456,384.708 C387.744,386.628 387.84,388.644 387.84,391.956 L387.84,406.74 C387.84,409.716 387.744,411.732 387.456,413.988 z" fill="#C75DFF"/>
    <path d="M451.872,402.036 C451.824,401.556 451.824,401.268 451.824,401.076 C451.68,398.34 451.488,396.324 451.104,394.788 C449.424,387.636 444.192,383.556 436.704,383.556 C427.536,383.556 421.44,389.844 421.44,399.348 C421.44,404.1 422.976,408.18 425.808,411.06 C428.544,413.796 432.24,415.14 436.944,415.14 C441.696,415.14 445.536,413.748 448.272,411.06 C449.616,409.716 450.336,408.612 451.44,406.116 L443.088,403.764 C442.704,405.012 442.368,405.54 441.648,406.212 C440.4,407.364 438.72,407.988 436.8,407.988 C433.008,407.988 430.752,405.924 430.272,402.036 z M430.416,395.412 C431.232,392.244 433.296,390.708 436.704,390.708 C440.016,390.708 442.08,392.34 442.752,395.412 z" fill="#C75DFF"/>
    <path d="M459.504,384.708 L457.776,384.708 C456.096,384.708 454.896,384.612 453.504,384.42 L453.504,392.436 C454.896,392.244 456.144,392.148 457.68,392.148 L459.504,392.148 L459.504,406.836 C459.504,410.1 460.176,411.732 462,413.124 C463.536,414.276 465.792,414.804 469.056,414.804 C471.648,414.804 473.52,414.516 475.68,413.844 L474.96,406.548 C473.76,407.172 472.848,407.412 471.6,407.412 C470.688,407.412 469.92,407.22 469.392,406.884 C468.768,406.452 468.528,405.78 468.528,404.436 L468.528,392.148 L470.544,392.148 C472.272,392.148 473.52,392.244 474.96,392.436 L474.96,384.468 C473.472,384.66 472.368,384.708 470.256,384.708 L468.528,384.708 L468.528,383.7 C468.528,381.396 468.672,379.092 468.912,377.124 L459.12,377.124 C459.408,379.38 459.504,381.3 459.504,383.7 z" fill="#C75DFF"/>
    <path d="M482.496,384.708 L480.768,384.708 C479.088,384.708 477.888,384.612 476.496,384.42 L476.496,392.436 C477.888,392.244 479.136,392.148 480.672,392.148 L482.496,392.148 L482.496,406.836 C482.496,410.1 483.168,411.732 484.992,413.124 C486.528,414.276 488.784,414.804 492.048,414.804 C494.64,414.804 496.512,414.516 498.672,413.844 L497.952,406.548 C496.752,407.172 495.84,407.412 494.592,407.412 C493.68,407.412 492.912,407.22 492.384,406.884 C491.76,406.452 491.52,405.78 491.52,404.436 L491.52,392.148 L493.536,392.148 C495.264,392.148 496.512,392.244 497.952,392.436 L497.952,384.468 C496.464,384.66 495.36,384.708 493.248,384.708 L491.52,384.708 L491.52,383.7 C491.52,381.396 491.664,379.092 491.904,377.124 L482.112,377.124 C482.4,379.38 482.496,381.3 482.496,383.7 z" fill="#C75DFF"/>
    <path d="M530.88,402.036 C530.832,401.556 530.832,401.268 530.832,401.076 C530.688,398.34 530.496,396.324 530.112,394.788 C528.432,387.636 523.2,383.556 515.712,383.556 C506.544,383.556 500.448,389.844 500.448,399.348 C500.448,404.1 501.984,408.18 504.816,411.06 C507.552,413.796 511.248,415.14 515.952,415.14 C520.704,415.14 524.544,413.748 527.28,411.06 C528.624,409.716 529.344,408.612 530.448,406.116 L522.096,403.764 C521.712,405.012 521.376,405.54 520.656,406.212 C519.408,407.364 517.728,407.988 515.808,407.988 C512.016,407.988 509.76,405.924 509.28,402.036 z M509.424,395.412 C510.24,392.244 512.304,390.708 515.712,390.708 C519.024,390.708 521.088,392.34 521.76,395.412 z" fill="#C75DFF"/>
  </g>
</svg>
